<?xml version="1.0" encoding="UTF-8"?>
<svg id="Capa_1" data-name="Capa 1" xmlns="http://www.w3.org/2000/svg" version="1.1" viewBox="0 0 582 323">
  <defs>
    <style>
      .cls-1 {
        fill: #f09676;
        stroke-width: 0px;
      }
    </style>
  </defs>
  <path class="cls-1" d="M74.56,136.79c138.48-1.3,293.83-1.31,432.31,0-138.48,1.31-293.83,1.3-432.31,0h0Z"/>
  <path class="cls-1" d="M256.31,304.69c-.11,0-.21,0-.32,0-4.9-.1-9.4-2.41-12.34-6.33l-39.57-53c-.32-.42-.81-.68-1.34-.7-.52-.03-1.02.19-1.37.59l-21.44,24.34c-2.99,3.39-7.29,5.25-11.82,5.08-4.52-.16-8.68-2.32-11.41-5.92l-92.19-121.16c-.93-1.23-2.4-1.96-3.94-1.96H23.25c-2.94,0-5.33-2.39-5.33-5.33s2.39-5.33,5.33-5.33h37.8c1.4,0,2.74-.45,3.87-1.3l107.24-81.24c6.81-5.17,16.46-4.86,22.94.74l4.03,3.49c1.63,1.41,4.11,1.32,5.63-.2l31.15-31.15c7.01-7.01,18.27-7.29,25.62-.62,18.85,17.08,52.17,47.7,62.26,57.01,1.51,1.39,3.89,1.31,5.31-.18l14.15-14.96c5.07-5.37,13.28-6.4,19.51-2.44l48.46,30.73c.97.61,2.19.61,3.18,0,4.53-2.84,13.9-9.71,20.97-14.97,6.24-4.65,15.03-4.31,20.9.8l59.68,51.91c.84.74,1.93,1.14,3.05,1.14h37.93c3.63,0,6.58,2.96,6.58,6.59s-2.96,6.59-6.59,6.59h-36.49c-2.05,0-4.03.74-5.58,2.09l-81.92,71.25c-7.81,6.78-18.6,8.58-28.18,4.7l-54.08-21.91c-2.04-.83-4.33-.24-5.72,1.47l-76.37,94.34c-3.02,3.73-7.47,5.85-12.25,5.85ZM202.68,242.65s.09,0,.14,0c1.14.04,2.18.59,2.87,1.5l39.57,53c2.56,3.43,6.49,5.45,10.77,5.53,4.27.09,8.28-1.78,10.98-5.1l76.37-94.34c1.94-2.4,5.17-3.23,8.02-2.07l54.08,21.91c8.88,3.6,18.89,1.93,26.12-4.36l81.92-71.25c1.92-1.66,4.37-2.58,6.9-2.58h36.49c2.53,0,4.59-2.06,4.59-4.59s-2.06-4.59-4.59-4.59h-37.92c-1.61,0-3.16-.58-4.37-1.64l-59.68-51.91c-5.17-4.5-12.9-4.79-18.4-.7-7.1,5.28-16.52,12.19-21.11,15.06-1.64,1.03-3.68,1.03-5.3,0l-48.46-30.73c-5.43-3.45-12.57-2.56-16.99,2.12l-14.15,14.96c-2.16,2.29-5.8,2.41-8.11.28-10.08-9.3-43.4-39.92-62.24-56.99-6.56-5.95-16.6-5.7-22.86.56l-31.15,31.15c-2.26,2.26-5.93,2.39-8.35.3l-4.03-3.49c-5.77-4.98-14.36-5.26-20.42-.66l-107.24,81.24c-1.48,1.12-3.24,1.7-5.07,1.7H23.25c-1.84,0-3.33,1.49-3.33,3.33s1.49,3.33,3.33,3.33h37.33c2.17,0,4.24,1.03,5.54,2.75l92.19,121.16c2.37,3.12,5.98,4.99,9.89,5.13,3.91.14,7.65-1.46,10.24-4.41l21.44-24.34c.71-.81,1.73-1.27,2.8-1.27Z"/>
</svg>